<?xml version="1.0" encoding="UTF-8" standalone="no"?>
<!DOCTYPE svg PUBLIC "-//W3C//DTD SVG 1.1//EN"
 "http://www.w3.org/Graphics/SVG/1.1/DTD/svg11.dtd">
<!-- Generated by graphviz version 2.43.0 (0)
 -->
<!-- Title: Tree Pages: 1 -->
<svg width="11212pt" height="3608pt"
 viewBox="0.00 0.00 1345.50 433.00" xmlns="http://www.w3.org/2000/svg" xmlns:xlink="http://www.w3.org/1999/xlink">
<g id="graph0" class="graph" transform="scale(0.12 0.12) rotate(0) translate(4 429)">
<title>Tree</title>
<polygon fill="white" stroke="transparent" points="-4,4 -4,-429 1341.5,-429 1341.5,4 -4,4"/>
<!-- 0 -->
<g id="node1" class="node">
<title>0</title>
<path fill="#eda978" stroke="black" d="M785.5,-425C785.5,-425 620.5,-425 620.5,-425 614.5,-425 608.5,-419 608.5,-413 608.5,-413 608.5,-354 608.5,-354 608.5,-348 614.5,-342 620.5,-342 620.5,-342 785.5,-342 785.5,-342 791.5,-342 797.5,-348 797.5,-354 797.5,-354 797.5,-413 797.5,-413 797.5,-419 791.5,-425 785.5,-425"/>
<text text-anchor="middle" x="703" y="-409.8" font-family="Helvetica,sans-Serif" font-size="14.00">hours&#45;per&#45;week &lt;= 41.5</text>
<text text-anchor="middle" x="703" y="-394.8" font-family="Helvetica,sans-Serif" font-size="14.00">gini = 0.366</text>
<text text-anchor="middle" x="703" y="-379.8" font-family="Helvetica,sans-Serif" font-size="14.00">samples = 29305</text>
<text text-anchor="middle" x="703" y="-364.8" font-family="Helvetica,sans-Serif" font-size="14.00">value = [22252, 7053]</text>
<text text-anchor="middle" x="703" y="-349.8" font-family="Helvetica,sans-Serif" font-size="14.00">class = &lt;=50K</text>
</g>
<!-- 1 -->
<g id="node2" class="node">
<title>1</title>
<path fill="#ea9b62" stroke="black" d="M634.5,-306C634.5,-306 465.5,-306 465.5,-306 459.5,-306 453.5,-300 453.5,-294 453.5,-294 453.5,-235 453.5,-235 453.5,-229 459.5,-223 465.5,-223 465.5,-223 634.5,-223 634.5,-223 640.5,-223 646.5,-229 646.5,-235 646.5,-235 646.5,-294 646.5,-294 646.5,-300 640.5,-306 634.5,-306"/>
<text text-anchor="middle" x="550" y="-290.8" font-family="Helvetica,sans-Serif" font-size="14.00">job_Other&#45;service &lt;= 0.5</text>
<text text-anchor="middle" x="550" y="-275.8" font-family="Helvetica,sans-Serif" font-size="14.00">gini = 0.286</text>
<text text-anchor="middle" x="550" y="-260.8" font-family="Helvetica,sans-Serif" font-size="14.00">samples = 20717</text>
<text text-anchor="middle" x="550" y="-245.8" font-family="Helvetica,sans-Serif" font-size="14.00">value = [17138, 3579]</text>
<text text-anchor="middle" x="550" y="-230.8" font-family="Helvetica,sans-Serif" font-size="14.00">class = &lt;=50K</text>
</g>
<!-- 0&#45;&gt;1 -->
<g id="edge1" class="edge">
<title>0&#45;&gt;1</title>
<path fill="none" stroke="black" d="M649.92,-341.91C637.46,-332.38 624.08,-322.15 611.29,-312.37"/>
<polygon fill="black" stroke="black" points="613.06,-309.32 602.99,-306.02 608.81,-314.88 613.06,-309.32"/>
<text text-anchor="middle" x="606.29" y="-327.1" font-family="Helvetica,sans-Serif" font-size="14.00">True</text>
</g>
<!-- 8 -->
<g id="node9" class="node">
<title>8</title>
<path fill="#f7d7c0" stroke="black" d="M943.5,-306C943.5,-306 752.5,-306 752.5,-306 746.5,-306 740.5,-300 740.5,-294 740.5,-294 740.5,-235 740.5,-235 740.5,-229 746.5,-223 752.5,-223 752.5,-223 943.5,-223 943.5,-223 949.5,-223 955.5,-229 955.5,-235 955.5,-235 955.5,-294 955.5,-294 955.5,-300 949.5,-306 943.5,-306"/>
<text text-anchor="middle" x="848" y="-290.8" font-family="Helvetica,sans-Serif" font-size="14.00">education_Bachelors &lt;= 0.5</text>
<text text-anchor="middle" x="848" y="-275.8" font-family="Helvetica,sans-Serif" font-size="14.00">gini = 0.482</text>
<text text-anchor="middle" x="848" y="-260.8" font-family="Helvetica,sans-Serif" font-size="14.00">samples = 8588</text>
<text text-anchor="middle" x="848" y="-245.8" font-family="Helvetica,sans-Serif" font-size="14.00">value = [5114, 3474]</text>
<text text-anchor="middle" x="848" y="-230.8" font-family="Helvetica,sans-Serif" font-size="14.00">class = &lt;=50K</text>
</g>
<!-- 0&#45;&gt;8 -->
<g id="edge8" class="edge">
<title>0&#45;&gt;8</title>
<path fill="none" stroke="black" d="M753.31,-341.91C765.12,-332.38 777.79,-322.15 789.91,-312.37"/>
<polygon fill="black" stroke="black" points="792.2,-315.02 797.78,-306.02 787.8,-309.58 792.2,-315.02"/>
<text text-anchor="middle" x="795.13" y="-327.18" font-family="Helvetica,sans-Serif" font-size="14.00">False</text>
</g>
<!-- 2 -->
<g id="node3" class="node">
<title>2</title>
<path fill="#eb9f68" stroke="black" d="M359.5,-187C359.5,-187 168.5,-187 168.5,-187 162.5,-187 156.5,-181 156.5,-175 156.5,-175 156.5,-116 156.5,-116 156.5,-110 162.5,-104 168.5,-104 168.5,-104 359.5,-104 359.5,-104 365.5,-104 371.5,-110 371.5,-116 371.5,-116 371.5,-175 371.5,-175 371.5,-181 365.5,-187 359.5,-187"/>
<text text-anchor="middle" x="264" y="-171.8" font-family="Helvetica,sans-Serif" font-size="14.00">education_Doctorate &lt;= 0.5</text>
<text text-anchor="middle" x="264" y="-156.8" font-family="Helvetica,sans-Serif" font-size="14.00">gini = 0.311</text>
<text text-anchor="middle" x="264" y="-141.8" font-family="Helvetica,sans-Serif" font-size="14.00">samples = 18108</text>
<text text-anchor="middle" x="264" y="-126.8" font-family="Helvetica,sans-Serif" font-size="14.00">value = [14614, 3494]</text>
<text text-anchor="middle" x="264" y="-111.8" font-family="Helvetica,sans-Serif" font-size="14.00">class = &lt;=50K</text>
</g>
<!-- 1&#45;&gt;2 -->
<g id="edge2" class="edge">
<title>1&#45;&gt;2</title>
<path fill="none" stroke="black" d="M453.17,-223.89C427.23,-213.27 399.01,-201.73 372.47,-190.87"/>
<polygon fill="black" stroke="black" points="373.74,-187.61 363.16,-187.07 371.09,-194.09 373.74,-187.61"/>
</g>
<!-- 5 -->
<g id="node6" class="node">
<title>5</title>
<path fill="#e68540" stroke="black" d="M663,-187C663,-187 437,-187 437,-187 431,-187 425,-181 425,-175 425,-175 425,-116 425,-116 425,-110 431,-104 437,-104 437,-104 663,-104 663,-104 669,-104 675,-110 675,-116 675,-116 675,-175 675,-175 675,-181 669,-187 663,-187"/>
<text text-anchor="middle" x="550" y="-171.8" font-family="Helvetica,sans-Serif" font-size="14.00">relationship_Not&#45;in&#45;family &lt;= 0.5</text>
<text text-anchor="middle" x="550" y="-156.8" font-family="Helvetica,sans-Serif" font-size="14.00">gini = 0.063</text>
<text text-anchor="middle" x="550" y="-141.8" font-family="Helvetica,sans-Serif" font-size="14.00">samples = 2609</text>
<text text-anchor="middle" x="550" y="-126.8" font-family="Helvetica,sans-Serif" font-size="14.00">value = [2524, 85]</text>
<text text-anchor="middle" x="550" y="-111.8" font-family="Helvetica,sans-Serif" font-size="14.00">class = &lt;=50K</text>
</g>
<!-- 1&#45;&gt;5 -->
<g id="edge5" class="edge">
<title>1&#45;&gt;5</title>
<path fill="none" stroke="black" d="M550,-222.91C550,-214.65 550,-205.86 550,-197.3"/>
<polygon fill="black" stroke="black" points="553.5,-197.02 550,-187.02 546.5,-197.02 553.5,-197.02"/>
</g>
<!-- 3 -->
<g id="node4" class="node">
<title>3</title>
<path fill="#eb9e67" stroke="black" d="M164,-68C164,-68 12,-68 12,-68 6,-68 0,-62 0,-56 0,-56 0,-12 0,-12 0,-6 6,0 12,0 12,0 164,0 164,0 170,0 176,-6 176,-12 176,-12 176,-56 176,-56 176,-62 170,-68 164,-68"/>
<text text-anchor="middle" x="88" y="-52.8" font-family="Helvetica,sans-Serif" font-size="14.00">gini = 0.307</text>
<text text-anchor="middle" x="88" y="-37.8" font-family="Helvetica,sans-Serif" font-size="14.00">samples = 17953</text>
<text text-anchor="middle" x="88" y="-22.8" font-family="Helvetica,sans-Serif" font-size="14.00">value = [14559, 3394]</text>
<text text-anchor="middle" x="88" y="-7.8" font-family="Helvetica,sans-Serif" font-size="14.00">class = &lt;=50K</text>
</g>
<!-- 2&#45;&gt;3 -->
<g id="edge3" class="edge">
<title>2&#45;&gt;3</title>
<path fill="none" stroke="black" d="M198.46,-103.73C182.55,-93.82 165.58,-83.27 149.84,-73.48"/>
<polygon fill="black" stroke="black" points="151.58,-70.44 141.24,-68.13 147.88,-76.38 151.58,-70.44"/>
</g>
<!-- 4 -->
<g id="node5" class="node">
<title>4</title>
<path fill="#a6d3f3" stroke="black" d="M322,-68C322,-68 206,-68 206,-68 200,-68 194,-62 194,-56 194,-56 194,-12 194,-12 194,-6 200,0 206,0 206,0 322,0 322,0 328,0 334,-6 334,-12 334,-12 334,-56 334,-56 334,-62 328,-68 322,-68"/>
<text text-anchor="middle" x="264" y="-52.8" font-family="Helvetica,sans-Serif" font-size="14.00">gini = 0.458</text>
<text text-anchor="middle" x="264" y="-37.8" font-family="Helvetica,sans-Serif" font-size="14.00">samples = 155</text>
<text text-anchor="middle" x="264" y="-22.8" font-family="Helvetica,sans-Serif" font-size="14.00">value = [55, 100]</text>
<text text-anchor="middle" x="264" y="-7.8" font-family="Helvetica,sans-Serif" font-size="14.00">class = &gt;50K</text>
</g>
<!-- 2&#45;&gt;4 -->
<g id="edge4" class="edge">
<title>2&#45;&gt;4</title>
<path fill="none" stroke="black" d="M264,-103.73C264,-95.52 264,-86.86 264,-78.56"/>
<polygon fill="black" stroke="black" points="267.5,-78.3 264,-68.3 260.5,-78.3 267.5,-78.3"/>
</g>
<!-- 6 -->
<g id="node7" class="node">
<title>6</title>
<path fill="#e68742" stroke="black" d="M489.5,-68C489.5,-68 364.5,-68 364.5,-68 358.5,-68 352.5,-62 352.5,-56 352.5,-56 352.5,-12 352.5,-12 352.5,-6 358.5,0 364.5,0 364.5,0 489.5,0 489.5,0 495.5,0 501.5,-6 501.5,-12 501.5,-12 501.5,-56 501.5,-56 501.5,-62 495.5,-68 489.5,-68"/>
<text text-anchor="middle" x="427" y="-52.8" font-family="Helvetica,sans-Serif" font-size="14.00">gini = 0.083</text>
<text text-anchor="middle" x="427" y="-37.8" font-family="Helvetica,sans-Serif" font-size="14.00">samples = 1858</text>
<text text-anchor="middle" x="427" y="-22.8" font-family="Helvetica,sans-Serif" font-size="14.00">value = [1777, 81]</text>
<text text-anchor="middle" x="427" y="-7.8" font-family="Helvetica,sans-Serif" font-size="14.00">class = &lt;=50K</text>
</g>
<!-- 5&#45;&gt;6 -->
<g id="edge6" class="edge">
<title>5&#45;&gt;6</title>
<path fill="none" stroke="black" d="M504.2,-103.73C493.65,-94.33 482.43,-84.35 471.92,-74.99"/>
<polygon fill="black" stroke="black" points="474.2,-72.33 464.41,-68.3 469.55,-77.56 474.2,-72.33"/>
</g>
<!-- 7 -->
<g id="node8" class="node">
<title>7</title>
<path fill="#e5823a" stroke="black" d="M638.5,-68C638.5,-68 531.5,-68 531.5,-68 525.5,-68 519.5,-62 519.5,-56 519.5,-56 519.5,-12 519.5,-12 519.5,-6 525.5,0 531.5,0 531.5,0 638.5,0 638.5,0 644.5,0 650.5,-6 650.5,-12 650.5,-12 650.5,-56 650.5,-56 650.5,-62 644.5,-68 638.5,-68"/>
<text text-anchor="middle" x="585" y="-52.8" font-family="Helvetica,sans-Serif" font-size="14.00">gini = 0.011</text>
<text text-anchor="middle" x="585" y="-37.8" font-family="Helvetica,sans-Serif" font-size="14.00">samples = 751</text>
<text text-anchor="middle" x="585" y="-22.8" font-family="Helvetica,sans-Serif" font-size="14.00">value = [747, 4]</text>
<text text-anchor="middle" x="585" y="-7.8" font-family="Helvetica,sans-Serif" font-size="14.00">class = &lt;=50K</text>
</g>
<!-- 5&#45;&gt;7 -->
<g id="edge7" class="edge">
<title>5&#45;&gt;7</title>
<path fill="none" stroke="black" d="M563.03,-103.73C565.71,-95.34 568.55,-86.47 571.25,-78.01"/>
<polygon fill="black" stroke="black" points="574.65,-78.89 574.36,-68.3 567.98,-76.76 574.65,-78.89"/>
</g>
<!-- 9 -->
<g id="node10" class="node">
<title>9</title>
<path fill="#f4c8a9" stroke="black" d="M947,-187C947,-187 749,-187 749,-187 743,-187 737,-181 737,-175 737,-175 737,-116 737,-116 737,-110 743,-104 749,-104 749,-104 947,-104 947,-104 953,-104 959,-110 959,-116 959,-116 959,-175 959,-175 959,-181 953,-187 947,-187"/>
<text text-anchor="middle" x="848" y="-171.8" font-family="Helvetica,sans-Serif" font-size="14.00">relationship_Husband &lt;= 0.5</text>
<text text-anchor="middle" x="848" y="-156.8" font-family="Helvetica,sans-Serif" font-size="14.00">gini = 0.461</text>
<text text-anchor="middle" x="848" y="-141.8" font-family="Helvetica,sans-Serif" font-size="14.00">samples = 6669</text>
<text text-anchor="middle" x="848" y="-126.8" font-family="Helvetica,sans-Serif" font-size="14.00">value = [4264, 2405]</text>
<text text-anchor="middle" x="848" y="-111.8" font-family="Helvetica,sans-Serif" font-size="14.00">class = &lt;=50K</text>
</g>
<!-- 8&#45;&gt;9 -->
<g id="edge9" class="edge">
<title>8&#45;&gt;9</title>
<path fill="none" stroke="black" d="M848,-222.91C848,-214.65 848,-205.86 848,-197.3"/>
<polygon fill="black" stroke="black" points="851.5,-197.02 848,-187.02 844.5,-197.02 851.5,-197.02"/>
</g>
<!-- 12 -->
<g id="node13" class="node">
<title>12</title>
<path fill="#d6ebfa" stroke="black" d="M1167,-187C1167,-187 1033,-187 1033,-187 1027,-187 1021,-181 1021,-175 1021,-175 1021,-116 1021,-116 1021,-110 1027,-104 1033,-104 1033,-104 1167,-104 1167,-104 1173,-104 1179,-110 1179,-116 1179,-116 1179,-175 1179,-175 1179,-181 1173,-187 1167,-187"/>
<text text-anchor="middle" x="1100" y="-171.8" font-family="Helvetica,sans-Serif" font-size="14.00">age &lt;= 28.5</text>
<text text-anchor="middle" x="1100" y="-156.8" font-family="Helvetica,sans-Serif" font-size="14.00">gini = 0.493</text>
<text text-anchor="middle" x="1100" y="-141.8" font-family="Helvetica,sans-Serif" font-size="14.00">samples = 1919</text>
<text text-anchor="middle" x="1100" y="-126.8" font-family="Helvetica,sans-Serif" font-size="14.00">value = [850, 1069]</text>
<text text-anchor="middle" x="1100" y="-111.8" font-family="Helvetica,sans-Serif" font-size="14.00">class = &gt;50K</text>
</g>
<!-- 8&#45;&gt;12 -->
<g id="edge12" class="edge">
<title>8&#45;&gt;12</title>
<path fill="none" stroke="black" d="M935.43,-222.91C960.01,-211.5 986.76,-199.08 1011.41,-187.63"/>
<polygon fill="black" stroke="black" points="1013.14,-190.69 1020.74,-183.3 1010.2,-184.34 1013.14,-190.69"/>
</g>
<!-- 10 -->
<g id="node11" class="node">
<title>10</title>
<path fill="#ea9a61" stroke="black" d="M815,-68C815,-68 681,-68 681,-68 675,-68 669,-62 669,-56 669,-56 669,-12 669,-12 669,-6 675,0 681,0 681,0 815,0 815,0 821,0 827,-6 827,-12 827,-12 827,-56 827,-56 827,-62 821,-68 815,-68"/>
<text text-anchor="middle" x="748" y="-52.8" font-family="Helvetica,sans-Serif" font-size="14.00">gini = 0.278</text>
<text text-anchor="middle" x="748" y="-37.8" font-family="Helvetica,sans-Serif" font-size="14.00">samples = 2840</text>
<text text-anchor="middle" x="748" y="-22.8" font-family="Helvetica,sans-Serif" font-size="14.00">value = [2366, 474]</text>
<text text-anchor="middle" x="748" y="-7.8" font-family="Helvetica,sans-Serif" font-size="14.00">class = &lt;=50K</text>
</g>
<!-- 9&#45;&gt;10 -->
<g id="edge10" class="edge">
<title>9&#45;&gt;10</title>
<path fill="none" stroke="black" d="M810.76,-103.73C802.43,-94.61 793.6,-84.93 785.27,-75.81"/>
<polygon fill="black" stroke="black" points="787.74,-73.32 778.41,-68.3 782.57,-78.04 787.74,-73.32"/>
</g>
<!-- 11 -->
<g id="node12" class="node">
<title>11</title>
<path fill="#fcfdff" stroke="black" d="M999.5,-68C999.5,-68 856.5,-68 856.5,-68 850.5,-68 844.5,-62 844.5,-56 844.5,-56 844.5,-12 844.5,-12 844.5,-6 850.5,0 856.5,0 856.5,0 999.5,0 999.5,0 1005.5,0 1011.5,-6 1011.5,-12 1011.5,-12 1011.5,-56 1011.5,-56 1011.5,-62 1005.5,-68 999.5,-68"/>
<text text-anchor="middle" x="928" y="-52.8" font-family="Helvetica,sans-Serif" font-size="14.00">gini = 0.5</text>
<text text-anchor="middle" x="928" y="-37.8" font-family="Helvetica,sans-Serif" font-size="14.00">samples = 3829</text>
<text text-anchor="middle" x="928" y="-22.8" font-family="Helvetica,sans-Serif" font-size="14.00">value = [1898, 1931]</text>
<text text-anchor="middle" x="928" y="-7.8" font-family="Helvetica,sans-Serif" font-size="14.00">class = &gt;50K</text>
</g>
<!-- 9&#45;&gt;11 -->
<g id="edge11" class="edge">
<title>9&#45;&gt;11</title>
<path fill="none" stroke="black" d="M877.79,-103.73C884.25,-94.88 891.1,-85.51 897.59,-76.63"/>
<polygon fill="black" stroke="black" points="900.6,-78.44 903.67,-68.3 894.95,-74.31 900.6,-78.44"/>
</g>
<!-- 13 -->
<g id="node14" class="node">
<title>13</title>
<path fill="#eda774" stroke="black" d="M1158,-68C1158,-68 1042,-68 1042,-68 1036,-68 1030,-62 1030,-56 1030,-56 1030,-12 1030,-12 1030,-6 1036,0 1042,0 1042,0 1158,0 1158,0 1164,0 1170,-6 1170,-12 1170,-12 1170,-56 1170,-56 1170,-62 1164,-68 1158,-68"/>
<text text-anchor="middle" x="1100" y="-52.8" font-family="Helvetica,sans-Serif" font-size="14.00">gini = 0.354</text>
<text text-anchor="middle" x="1100" y="-37.8" font-family="Helvetica,sans-Serif" font-size="14.00">samples = 304</text>
<text text-anchor="middle" x="1100" y="-22.8" font-family="Helvetica,sans-Serif" font-size="14.00">value = [234, 70]</text>
<text text-anchor="middle" x="1100" y="-7.8" font-family="Helvetica,sans-Serif" font-size="14.00">class = &lt;=50K</text>
</g>
<!-- 12&#45;&gt;13 -->
<g id="edge13" class="edge">
<title>12&#45;&gt;13</title>
<path fill="none" stroke="black" d="M1100,-103.73C1100,-95.52 1100,-86.86 1100,-78.56"/>
<polygon fill="black" stroke="black" points="1103.5,-78.3 1100,-68.3 1096.5,-78.3 1103.5,-78.3"/>
</g>
<!-- 14 -->
<g id="node15" class="node">
<title>14</title>
<path fill="#b3d9f5" stroke="black" d="M1325.5,-68C1325.5,-68 1200.5,-68 1200.5,-68 1194.5,-68 1188.5,-62 1188.5,-56 1188.5,-56 1188.5,-12 1188.5,-12 1188.5,-6 1194.5,0 1200.5,0 1200.5,0 1325.5,0 1325.5,0 1331.5,0 1337.5,-6 1337.5,-12 1337.5,-12 1337.5,-56 1337.5,-56 1337.5,-62 1331.5,-68 1325.5,-68"/>
<text text-anchor="middle" x="1263" y="-52.8" font-family="Helvetica,sans-Serif" font-size="14.00">gini = 0.472</text>
<text text-anchor="middle" x="1263" y="-37.8" font-family="Helvetica,sans-Serif" font-size="14.00">samples = 1615</text>
<text text-anchor="middle" x="1263" y="-22.8" font-family="Helvetica,sans-Serif" font-size="14.00">value = [616, 999]</text>
<text text-anchor="middle" x="1263" y="-7.8" font-family="Helvetica,sans-Serif" font-size="14.00">class = &gt;50K</text>
</g>
<!-- 12&#45;&gt;14 -->
<g id="edge14" class="edge">
<title>12&#45;&gt;14</title>
<path fill="none" stroke="black" d="M1160.7,-103.73C1175.3,-93.92 1190.86,-83.46 1205.32,-73.75"/>
<polygon fill="black" stroke="black" points="1207.34,-76.61 1213.69,-68.13 1203.44,-70.8 1207.34,-76.61"/>
</g>
</g>
</svg>
